<?xml version="1.0" encoding="UTF-8" standalone="no"?>
<!DOCTYPE svg PUBLIC "-//W3C//DTD SVG 1.1//EN" "http://www.w3.org/Graphics/SVG/1.1/DTD/svg11.dtd">
<svg width="100%" height="100%" viewBox="0 0 2418 2118" version="1.1" xmlns="http://www.w3.org/2000/svg" xmlns:xlink="http://www.w3.org/1999/xlink" xml:space="preserve" xmlns:serif="http://www.serif.com/" style="fill-rule:evenodd;clip-rule:evenodd;stroke-linejoin:round;stroke-miterlimit:2;">
    <g transform="matrix(1,0,0,1,0,-11210)">
        <g id="Prancheta11" transform="matrix(1,0,0,1,156,0)">
            <rect x="-156" y="11210" width="2418" height="2118" style="fill:none;"/>
            <g id="rain-night" serif:id="rain night" transform="matrix(1,0,0,1,-84,-363)">
                <g transform="matrix(1,0,0,1,-267.864,2126.61)">
                    <g transform="matrix(0.773816,0.203474,-0.203474,0.773816,2380.63,2238.19)">
                        <path d="M930,10780C930,10765.6 918.35,10754 904,10754C889.65,10754 878,10765.6 878,10780L878,10854C878,10868.4 889.65,10880 904,10880C918.35,10880 930,10868.4 930,10854L930,10780Z" style="fill:rgb(111,218,231);"/>
                    </g>
                    <g transform="matrix(0.876309,0.230425,-0.230425,0.876309,2474.46,1384.32)">
                        <path d="M930,10780C930,10765.6 918.35,10754 904,10754C889.65,10754 878,10765.6 878,10780L878,10854C878,10868.4 889.65,10880 904,10880C918.35,10880 930,10868.4 930,10854L930,10780Z" style="fill:rgb(111,218,231);"/>
                    </g>
                    <g transform="matrix(0.967124,0.254304,-0.254304,0.967124,3464.53,627.726)">
                        <path d="M930,10780C930,10765.6 918.35,10754 904,10754C889.65,10754 878,10765.6 878,10780L878,10854C878,10868.4 889.65,10880 904,10880C918.35,10880 930,10868.4 930,10854L930,10780Z" style="fill:rgb(111,218,231);"/>
                    </g>
                    <g transform="matrix(0.967124,0.254304,-0.254304,0.967124,3716.93,630.938)">
                        <path d="M930,10780C930,10765.6 918.35,10754 904,10754C889.65,10754 878,10765.6 878,10780L878,10854C878,10868.4 889.65,10880 904,10880C918.35,10880 930,10868.4 930,10854L930,10780Z" style="fill:rgb(111,218,231);"/>
                    </g>
                    <g transform="matrix(0.789918,0.207708,-0.207708,0.789918,2607.69,2260.56)">
                        <path d="M930,10780C930,10765.6 918.35,10754 904,10754C889.65,10754 878,10765.6 878,10780L878,10854C878,10868.4 889.65,10880 904,10880C918.35,10880 930,10868.4 930,10854L930,10780Z" style="fill:rgb(111,218,231);"/>
                    </g>
                    <g transform="matrix(0.829259,0.218053,-0.218053,0.829259,3208.39,1662.14)">
                        <path d="M930,10780C930,10765.6 918.35,10754 904,10754C889.65,10754 878,10765.6 878,10780L878,10854C878,10868.4 889.65,10880 904,10880C918.35,10880 930,10868.4 930,10854L930,10780Z" style="fill:rgb(111,218,231);"/>
                    </g>
                    <g transform="matrix(0.823719,0.216596,-0.216596,0.823719,3355.59,1974.26)">
                        <path d="M930,10780C930,10765.6 918.35,10754 904,10754C889.65,10754 878,10765.6 878,10780L878,10854C878,10868.4 889.65,10880 904,10880C918.35,10880 930,10868.4 930,10854L930,10780Z" style="fill:rgb(111,218,231);"/>
                    </g>
                    <g transform="matrix(0.857202,0.225401,-0.225401,0.857202,3614.4,1544.25)">
                        <path d="M930,10780C930,10765.6 918.35,10754 904,10754C889.65,10754 878,10765.6 878,10780L878,10854C878,10868.4 889.65,10880 904,10880C918.35,10880 930,10868.4 930,10854L930,10780Z" style="fill:rgb(111,218,231);"/>
                    </g>
                    <g transform="matrix(1.00109,0.263235,-0.263235,1.00109,3217.42,170.978)">
                        <path d="M930,10780C930,10765.6 918.35,10754 904,10754C889.65,10754 878,10765.6 878,10780L878,10854C878,10868.4 889.65,10880 904,10880C918.35,10880 930,10868.4 930,10854L930,10780Z" style="fill:rgb(111,218,231);"/>
                    </g>
                    <g transform="matrix(0.804799,0.211621,-0.211621,0.804799,2565.42,2358.89)">
                        <path d="M930,10780C930,10765.6 918.35,10754 904,10754C889.65,10754 878,10765.6 878,10780L878,10854C878,10868.4 889.65,10880 904,10880C918.35,10880 930,10868.4 930,10854L930,10780Z" style="fill:rgb(111,218,231);"/>
                    </g>
                    <g transform="matrix(0.804799,0.211621,-0.211621,0.804799,2767.42,1907.89)">
                        <path d="M930,10780C930,10765.6 918.35,10754 904,10754C889.65,10754 878,10765.6 878,10780L878,10854C878,10868.4 889.65,10880 904,10880C918.35,10880 930,10868.4 930,10854L930,10780Z" style="fill:rgb(111,218,231);"/>
                    </g>
                    <g transform="matrix(0.804799,0.211621,-0.211621,0.804799,2957.42,2048.37)">
                        <path d="M930,10780C930,10765.6 918.35,10754 904,10754C889.65,10754 878,10765.6 878,10780L878,10854C878,10868.4 889.65,10880 904,10880C918.35,10880 930,10868.4 930,10854L930,10780Z" style="fill:rgb(111,218,231);"/>
                    </g>
                    <g transform="matrix(0.804799,0.211621,-0.211621,0.804799,3061.42,2242.8)">
                        <path d="M930,10780C930,10765.6 918.35,10754 904,10754C889.65,10754 878,10765.6 878,10780L878,10854C878,10868.4 889.65,10880 904,10880C918.35,10880 930,10868.4 930,10854L930,10780Z" style="fill:rgb(111,218,231);"/>
                    </g>
                    <g transform="matrix(0.804799,0.211621,-0.211621,0.804799,3369.08,1967.94)">
                        <path d="M930,10780C930,10765.6 918.35,10754 904,10754C889.65,10754 878,10765.6 878,10780L878,10854C878,10868.4 889.65,10880 904,10880C918.35,10880 930,10868.4 930,10854L930,10780Z" style="fill:rgb(111,218,231);"/>
                    </g>
                    <g transform="matrix(0.804799,0.211621,-0.211621,0.804799,3606.08,1881.37)">
                        <path d="M930,10780C930,10765.6 918.35,10754 904,10754C889.65,10754 878,10765.6 878,10780L878,10854C878,10868.4 889.65,10880 904,10880C918.35,10880 930,10868.4 930,10854L930,10780Z" style="fill:rgb(111,218,231);"/>
                    </g>
                </g>
                <g transform="matrix(1.41292,0,0,1.41292,-461.811,7523.23)">
                    <g transform="matrix(0.549497,0,0,0.549497,778.92,2546.04)">
                        <circle cx="1133" cy="1299" r="596" style="fill:rgb(252,208,83);"/>
                    </g>
                    <path d="M681,3769C792.068,3767.86 1496.06,3785.26 1563,3769C1682.66,3739.93 1720.6,3422.02 1459,3454C1441.37,3456.16 1491.66,3337.47 1430.84,3289.53C1364.72,3237.43 1271.27,3259.68 1223,3298C1214.3,3304.91 1226.09,3047.36 963.045,3080.24C744.434,3107.57 791.051,3319.37 770,3360C768.738,3362.44 558.14,3334.91 539.411,3551.23C530.515,3653.97 595.606,3769.87 681,3769Z" style="fill:rgb(249,255,255);"/>
                </g>
            </g>
        </g>
    </g>
</svg>
