<?xml version="1.0" encoding="UTF-8" standalone="no"?>
<!DOCTYPE svg PUBLIC "-//W3C//DTD SVG 1.1//EN" "http://www.w3.org/Graphics/SVG/1.1/DTD/svg11.dtd">
<svg width="100%" height="100%" viewBox="0 0 2132 1944" version="1.1" xmlns="http://www.w3.org/2000/svg" xmlns:xlink="http://www.w3.org/1999/xlink" xml:space="preserve" xmlns:serif="http://www.serif.com/" style="fill-rule:evenodd;clip-rule:evenodd;stroke-linejoin:round;stroke-miterlimit:2;">
    <g transform="matrix(1,0,0,1,-7719,-177)">
        <g id="Prancheta14" transform="matrix(1,0,0,0.938224,-0.433071,131.027)">
            <rect x="7719.43" y="49" width="2131.57" height="2072" style="fill:none;"/>
            <g id="thunder-night" serif:id="thunder night" transform="matrix(1,0,0,1.06584,2008.43,-510.568)">
                <g transform="matrix(1,0,0,1,347.5,37)">
                    <path d="M6415,1540L6626,1540L6491,1773L6626,1773L6279,2204L6382,1898L6261,1898L6415,1540Z" style="fill:rgb(255,193,23);"/>
                </g>
                <g transform="matrix(1,0,0,1,5493,-6372)">
                    <g transform="matrix(1.41292,0,0,1.41292,-266.732,2691.34)">
                        <path d="M681,3769C792.068,3767.86 1496.06,3785.26 1563,3769C1682.66,3739.93 1720.6,3422.02 1459,3454C1441.37,3456.16 1491.66,3337.47 1430.84,3289.53C1364.72,3237.43 1271.27,3259.68 1223,3298C1214.3,3304.91 1226.09,3047.36 963.045,3080.24C744.434,3107.57 791.051,3319.37 770,3360C768.738,3362.44 558.14,3334.91 539.411,3551.23C530.515,3653.97 595.606,3769.87 681,3769Z" style="fill:rgb(212,210,209);"/>
                    </g>
                    <g transform="matrix(1.41292,0,0,1.41292,-416.732,2809.84)">
                        <path d="M681,3769C792.068,3767.86 1496.06,3785.26 1563,3769C1682.66,3739.93 1720.6,3422.02 1459,3454C1441.37,3456.16 1491.66,3337.47 1430.84,3289.53C1364.72,3237.43 1271.27,3259.68 1223,3298C1214.3,3304.91 1226.09,3047.36 963.045,3080.24C744.434,3107.57 791.051,3319.37 770,3360C768.738,3362.44 558.14,3334.91 539.411,3551.23C530.515,3653.97 595.606,3769.87 681,3769Z" style="fill:rgb(243,240,240);"/>
                    </g>
                </g>
                <g transform="matrix(1,0,0,1,-44,147)">
                    <path d="M6415,1540L6626,1540L6491,1773L6626,1773L6279,2204L6382,1898L6261,1898L6415,1540Z" style="fill:rgb(255,193,23);"/>
                </g>
            </g>
        </g>
    </g>
</svg>
