<?xml version="1.0" encoding="UTF-8" standalone="no"?>
<!DOCTYPE svg PUBLIC "-//W3C//DTD SVG 1.1//EN" "http://www.w3.org/Graphics/SVG/1.1/DTD/svg11.dtd">
<svg width="100%" height="100%" viewBox="0 0 2030 2049" version="1.1" xmlns="http://www.w3.org/2000/svg" xmlns:xlink="http://www.w3.org/1999/xlink" xml:space="preserve" xmlns:serif="http://www.serif.com/" style="fill-rule:evenodd;clip-rule:evenodd;stroke-linejoin:round;stroke-miterlimit:2;">
    <g transform="matrix(1,0,0,1,-5504,-2514)">
        <g id="Prancheta15" transform="matrix(0.878788,0,0,1,913.212,0)">
            <rect x="5224" y="2514" width="2310" height="2049" style="fill:none;"/>
            <g id="snow-day" serif:id="snow day" transform="matrix(1.13793,0,0,1,-957.241,-363)">
                <g>
                    <circle cx="5872" cy="4154" r="42" style="fill:rgb(251,253,253);"/>
                    <circle cx="6043" cy="4242" r="46" style="fill:rgb(251,253,253);"/>
                    <g transform="matrix(1,0,0,1,33,226)">
                        <circle cx="6043" cy="4242" r="46" style="fill:rgb(251,253,253);"/>
                    </g>
                    <g transform="matrix(1.37522,0,0,1.37522,-1939.21,-1452.44)">
                        <circle cx="6043" cy="4242" r="46" style="fill:rgb(251,253,253);"/>
                    </g>
                    <g transform="matrix(1,0,0,1,219,318)">
                        <circle cx="6043" cy="4242" r="46" style="fill:rgb(251,253,253);"/>
                    </g>
                    <g transform="matrix(0.673913,0,0,0.673913,2049.54,1858.26)">
                        <circle cx="6043" cy="4242" r="46" style="fill:rgb(251,253,253);"/>
                    </g>
                    <g transform="matrix(0.750447,0,0,0.782609,1672.57,962.174)">
                        <circle cx="6043" cy="4242" r="46" style="fill:rgb(251,253,253);"/>
                    </g>
                    <g transform="matrix(0.750447,0,0,0.782609,1899.57,864.174)">
                        <circle cx="6043" cy="4242" r="46" style="fill:rgb(251,253,253);"/>
                    </g>
                    <g transform="matrix(1,0,0,1,42,30)">
                        <circle cx="5872" cy="4350" r="42" style="fill:rgb(251,253,253);"/>
                    </g>
                    <g transform="matrix(1,0,0,1,-96,-42)">
                        <ellipse cx="6322" cy="4154" rx="44" ry="42" style="fill:rgb(251,253,253);"/>
                    </g>
                    <g transform="matrix(0.715909,0,0,0.715909,1419.52,1632.18)">
                        <ellipse cx="6322" cy="4154" rx="44" ry="42" style="fill:rgb(251,253,253);"/>
                    </g>
                    <g transform="matrix(1,0,0,1,727,-9)">
                        <circle cx="5872" cy="4154" r="42" style="fill:rgb(251,253,253);"/>
                    </g>
                    <g transform="matrix(1,0,0,1,727,-9)">
                        <circle cx="6043" cy="4242" r="46" style="fill:rgb(251,253,253);"/>
                    </g>
                    <g transform="matrix(1,0,0,1,760,217)">
                        <circle cx="6043" cy="4242" r="46" style="fill:rgb(251,253,253);"/>
                    </g>
                    <g transform="matrix(0.750447,0,0,0.782609,2399.57,953.174)">
                        <circle cx="6043" cy="4242" r="46" style="fill:rgb(251,253,253);"/>
                    </g>
                    <g transform="matrix(1,0,0,1,769,21)">
                        <circle cx="5872" cy="4350" r="42" style="fill:rgb(251,253,253);"/>
                    </g>
                    <g transform="matrix(1,0,0,1,637,197)">
                        <circle cx="5872" cy="4350" r="42" style="fill:rgb(251,253,253);"/>
                    </g>
                    <g transform="matrix(0.630952,0,0,0.630952,2735.55,1936.86)">
                        <circle cx="5872" cy="4350" r="42" style="fill:rgb(251,253,253);"/>
                    </g>
                    <g transform="matrix(0.630952,0,0,0.630952,2872.55,1994.36)">
                        <circle cx="5872" cy="4350" r="42" style="fill:rgb(251,253,253);"/>
                    </g>
                    <g transform="matrix(0.630952,0,0,0.630952,2617.55,2062.36)">
                        <circle cx="5872" cy="4350" r="42" style="fill:rgb(251,253,253);"/>
                    </g>
                    <g transform="matrix(1,0,0,1,631,-51)">
                        <ellipse cx="6322" cy="4154" rx="44" ry="42" style="fill:rgb(251,253,253);"/>
                    </g>
                    <g transform="matrix(0.715909,0,0,0.715909,2146.52,1623.18)">
                        <ellipse cx="6322" cy="4154" rx="44" ry="42" style="fill:rgb(251,253,253);"/>
                    </g>
                </g>
                <g transform="matrix(1,0,0,1,5267,-4033)">
                    <g transform="matrix(1.41292,0,0,1.41292,-266.732,2691.34)">
                        <path d="M681,3769C792.068,3767.86 1496.06,3785.26 1563,3769C1682.66,3739.93 1720.6,3422.02 1459,3454C1441.37,3456.16 1491.66,3337.47 1430.84,3289.53C1364.72,3237.43 1271.27,3259.68 1223,3298C1214.3,3304.91 1226.09,3047.36 963.045,3080.24C744.434,3107.57 791.051,3319.37 770,3360C768.738,3362.44 558.14,3334.91 539.411,3551.23C530.515,3653.97 595.606,3769.87 681,3769Z" style="fill:rgb(251,253,253);"/>
                    </g>
                    <g transform="matrix(1.41292,0,0,1.41292,-416.732,2809.84)">
                        <path d="M681,3769C792.068,3767.86 1496.06,3785.26 1563,3769C1682.66,3739.93 1720.6,3422.02 1459,3454C1441.37,3456.16 1491.66,3337.47 1430.84,3289.53C1364.72,3237.43 1271.27,3259.68 1223,3298C1214.3,3304.91 1226.09,3047.36 963.045,3080.24C744.434,3107.57 791.051,3319.37 770,3360C768.738,3362.44 558.14,3334.91 539.411,3551.23C530.515,3653.97 595.606,3769.87 681,3769Z" style="fill:rgb(251,253,253);"/>
                    </g>
                </g>
            </g>
        </g>
    </g>
</svg>
