<?xml version="1.0" encoding="UTF-8" standalone="no"?>
<!DOCTYPE svg PUBLIC "-//W3C//DTD SVG 1.1//EN" "http://www.w3.org/Graphics/SVG/1.1/DTD/svg11.dtd">
<svg width="100%" height="100%" viewBox="0 0 2282 1610" version="1.1" xmlns="http://www.w3.org/2000/svg" xmlns:xlink="http://www.w3.org/1999/xlink" xml:space="preserve" xmlns:serif="http://www.serif.com/" style="fill-rule:evenodd;clip-rule:evenodd;stroke-linejoin:round;stroke-miterlimit:2;">
    <g transform="matrix(1,0,0,1,-7807,-4748)">
        <g id="Prancheta18" transform="matrix(1,0,0,1,237.567,35.4331)">
            <rect x="7569.43" y="4712.57" width="2281.13" height="1609.87" style="fill:none;"/>
            <g id="mist-night" serif:id="mist night" transform="matrix(1,0,0,1,14.4331,-147.433)">
                <g id="mist" transform="matrix(1.41292,0,0,1.41292,7042.27,646.513)">
                    <path d="M681,3769C792.068,3767.86 1496.06,3785.26 1563,3769C1682.66,3739.93 1720.6,3422.02 1459,3454C1441.37,3456.16 1491.66,3337.47 1430.84,3289.53C1364.72,3237.43 1271.27,3259.68 1223,3298C1214.3,3304.91 1226.09,3047.36 963.045,3080.24C744.434,3107.57 791.051,3319.37 770,3360C768.738,3362.44 558.14,3334.91 539.411,3551.23C530.515,3653.97 595.606,3769.87 681,3769Z" style="fill:rgb(243,240,240);fill-opacity:0.76;"/>
                </g>
                <g transform="matrix(1,0,0,1,2219.5,-76.3276)">
                    <g transform="matrix(1,0,0,0.510643,60,2682.13)">
                        <path d="M6162,5354.22C6162,5296.7 6138.15,5250 6108.78,5250L5345.22,5250C5315.85,5250 5292,5296.7 5292,5354.22C5292,5411.74 5315.85,5458.44 5345.22,5458.44L6108.78,5458.44C6138.15,5458.44 6162,5411.74 6162,5354.22Z" style="fill:rgb(212,210,209);fill-opacity:0.76;"/>
                    </g>
                    <g transform="matrix(1,0,0,0.510643,124,3100.13)">
                        <path d="M6162,5354.22C6162,5296.7 6138.15,5250 6108.78,5250L5345.22,5250C5315.85,5250 5292,5296.7 5292,5354.22C5292,5411.74 5315.85,5458.44 5345.22,5458.44L6108.78,5458.44C6138.15,5458.44 6162,5411.74 6162,5354.22Z" style="fill:rgb(212,210,209);fill-opacity:0.76;"/>
                    </g>
                    <g transform="matrix(1,0,0,0.510643,766,3405.13)">
                        <path d="M6162,5354.22C6162,5296.7 6138.15,5250 6108.78,5250L5345.22,5250C5315.85,5250 5292,5296.7 5292,5354.22C5292,5411.74 5315.85,5458.44 5345.22,5458.44L6108.78,5458.44C6138.15,5458.44 6162,5411.74 6162,5354.22Z" style="fill:rgb(212,210,209);fill-opacity:0.76;"/>
                    </g>
                    <g transform="matrix(0.716092,0,0,0.365667,1922.44,3613.57)">
                        <path d="M6162,5354.22C6162,5296.7 6138.15,5250 6108.78,5250L5345.22,5250C5315.85,5250 5292,5296.7 5292,5354.22C5292,5411.74 5315.85,5458.44 5345.22,5458.44L6108.78,5458.44C6138.15,5458.44 6162,5411.74 6162,5354.22Z" style="fill:rgb(212,210,209);fill-opacity:0.76;"/>
                    </g>
                    <g transform="matrix(0.716092,0,0,0.365667,1645.44,3734.57)">
                        <path d="M6162,5354.22C6162,5296.7 6138.15,5250 6108.78,5250L5345.22,5250C5315.85,5250 5292,5296.7 5292,5354.22C5292,5411.74 5315.85,5458.44 5345.22,5458.44L6108.78,5458.44C6138.15,5458.44 6162,5411.74 6162,5354.22Z" style="fill:rgb(212,210,209);fill-opacity:0.76;"/>
                    </g>
                    <g transform="matrix(0.716092,0,0,0.365667,2980.44,3734.57)">
                        <path d="M6162,5354.22C6162,5296.7 6138.15,5250 6108.78,5250L5345.22,5250C5315.85,5250 5292,5296.7 5292,5354.22C5292,5411.74 5315.85,5458.44 5345.22,5458.44L6108.78,5458.44C6138.15,5458.44 6162,5411.74 6162,5354.22Z" style="fill:rgb(212,210,209);fill-opacity:0.76;"/>
                    </g>
                    <g transform="matrix(0.716092,0,0,0.365667,2782.44,3994.14)">
                        <path d="M6162,5354.22C6162,5296.7 6138.15,5250 6108.78,5250L5345.22,5250C5315.85,5250 5292,5296.7 5292,5354.22C5292,5411.74 5315.85,5458.44 5345.22,5458.44L6108.78,5458.44C6138.15,5458.44 6162,5411.74 6162,5354.22Z" style="fill:rgb(212,210,209);fill-opacity:0.76;"/>
                    </g>
                    <g transform="matrix(0.716092,0,0,0.365667,1873.44,4032.25)">
                        <path d="M6162,5354.22C6162,5296.7 6138.15,5250 6108.78,5250L5345.22,5250C5315.85,5250 5292,5296.7 5292,5354.22C5292,5411.74 5315.85,5458.44 5345.22,5458.44L6108.78,5458.44C6138.15,5458.44 6162,5411.74 6162,5354.22Z" style="fill:rgb(212,210,209);fill-opacity:0.76;"/>
                    </g>
                    <g transform="matrix(0.493103,0,0,0.2518,3608,4339.38)">
                        <path d="M6162,5354.22C6162,5296.7 6138.15,5250 6108.78,5250L5345.22,5250C5315.85,5250 5292,5296.7 5292,5354.22C5292,5411.74 5315.85,5458.44 5345.22,5458.44L6108.78,5458.44C6138.15,5458.44 6162,5411.74 6162,5354.22Z" style="fill:rgb(212,210,209);fill-opacity:0.76;"/>
                    </g>
                    <g transform="matrix(0.493103,0,0,0.2518,3889.5,4216.38)">
                        <path d="M6162,5354.22C6162,5296.7 6138.15,5250 6108.78,5250L5345.22,5250C5315.85,5250 5292,5296.7 5292,5354.22C5292,5411.74 5315.85,5458.44 5345.22,5458.44L6108.78,5458.44C6138.15,5458.44 6162,5411.74 6162,5354.22Z" style="fill:rgb(212,210,209);fill-opacity:0.76;"/>
                    </g>
                    <g transform="matrix(0.493103,0,0,0.2518,3889.5,4486.38)">
                        <path d="M6162,5354.22C6162,5296.7 6138.15,5250 6108.78,5250L5345.22,5250C5315.85,5250 5292,5296.7 5292,5354.22C5292,5411.74 5315.85,5458.44 5345.22,5458.44L6108.78,5458.44C6138.15,5458.44 6162,5411.74 6162,5354.22Z" style="fill:rgb(212,210,209);fill-opacity:0.76;"/>
                    </g>
                </g>
            </g>
        </g>
    </g>
</svg>
