<?xml version="1.0" encoding="UTF-8" standalone="no"?>
<!DOCTYPE svg PUBLIC "-//W3C//DTD SVG 1.1//EN" "http://www.w3.org/Graphics/SVG/1.1/DTD/svg11.dtd">
<svg width="100%" height="100%" viewBox="0 0 4191 3344" version="1.1" xmlns="http://www.w3.org/2000/svg" xmlns:xlink="http://www.w3.org/1999/xlink" xml:space="preserve" xmlns:serif="http://www.serif.com/" style="fill-rule:evenodd;clip-rule:evenodd;stroke-linecap:round;stroke-linejoin:round;stroke-miterlimit:1.5;">
    <g transform="matrix(1,0,0,1,-4629,0)">
        <g transform="matrix(1,0,0,1,-832.16,555)">
            <g id="few-clouds-day" serif:id="few clouds day">
            </g>
        </g>
        <g transform="matrix(1,0,0,1,-1049.72,9959.72)">
            <g id="broken-clouds-night" serif:id="broken clouds night">
            </g>
        </g>
        <g transform="matrix(1,0,0,1,-832.16,846.275)">
            <g id="few-clouds-night" serif:id="few clouds night">
            </g>
        </g>
        <g transform="matrix(1,0,0,1,-1323.53,9400)">
            <g id="broken-clouds-day" serif:id="broken clouds day">
            </g>
        </g>
        <g transform="matrix(1,0,0,1,-1323.53,14108)">
            <g id="shower-rain-day" serif:id="shower rain day">
            </g>
        </g>
        <g transform="matrix(1,0,0,1,-1323.53,19235.7)">
            <g id="rain-night" serif:id="rain night">
            </g>
        </g>
        <g transform="matrix(1,0,0,1,-1113.77,14901.5)">
            <g id="shower-rain-night" serif:id="shower rain night">
            </g>
        </g>
        <g transform="matrix(1,0,0,1,-1113.77,19961.3)">
            <g id="rain-night1" serif:id="rain night">
            </g>
        </g>
        <g transform="matrix(1,0,0,1,-751,-345)">
            <g id="snow-day" serif:id="snow day">
            </g>
        </g>
        <g transform="matrix(1,0,0,1,-751,-345)">
            <g transform="matrix(1,0,0,1,6852,21735.3)">
                <g id="thunder-night" serif:id="thunder night">
                </g>
            </g>
        </g>
        <g transform="matrix(1,0,0,1,-744,8183.09)">
            <g transform="matrix(1,0,0,1,1506.5,24264.6)">
                <g id="mist-night" serif:id="mist night">
                </g>
            </g>
        </g>
        <g transform="matrix(1,0,0,1,-941.448,4307.05)">
            <g id="snow-night" serif:id="snow night">
            </g>
        </g>
        <g transform="matrix(1,0,0,1,-752,-2595)">
            <g transform="matrix(1,0,0,1,2531.23,23430.1)">
                <g id="thunder-day" serif:id="thunder day">
                </g>
            </g>
        </g>
        <g transform="matrix(1,0,0,1,-752,6011.23)">
            <g transform="matrix(1,0,0,1,-2635,25875.7)">
                <g id="mist-day" serif:id="mist day">
                </g>
            </g>
        </g>
        <g id="Prancheta2" transform="matrix(1,0,0,1,-0.483645,0)">
            <rect x="4629.48" y="0" width="4190.52" height="3344" style="fill:none;"/>
            <g transform="matrix(1,0,0,1,-778.591,-7404.78)">
                <g transform="matrix(1,0,0,1,12.7067,7276)">
                    <g transform="matrix(0.80531,0,0,0.788054,1239.5,490.71)">
                        <path d="M7027,1863.05L7135,1863.05L7024,1981L7137,1979" style="fill:none;stroke:rgb(42,76,255);stroke-width:20.92px;"/>
                    </g>
                    <g transform="matrix(0.554069,0,0,0.542196,3291.22,834.931)">
                        <path d="M7027,1863.05L7135,1863.05L7024,1981L7137,1979" style="fill:none;stroke:rgb(42,76,255);stroke-width:30.4px;"/>
                    </g>
                    <g transform="matrix(1.04789,0,0,1.02543,-340.359,-93.8611)">
                        <path d="M7027,1863.05L7135,1863.05L7024,1981L7137,1979" style="fill:none;stroke:rgb(42,76,255);stroke-width:16.08px;"/>
                    </g>
                </g>
                <g transform="matrix(0.970026,-0.243001,0.243001,0.970026,-2127.3,2046.57)">
                    <path d="M8116,10058C8066.17,10065.8 7936.39,10107 7915,10131C7884.46,10165.3 7933.43,10216.2 7981,10196C8009.5,10183.9 8079,10139.8 8105,10164C8131,10188.2 8124.3,10311.8 8137,10341C8142.89,10354.5 8167.72,10333 8181.21,10339C8195.55,10345.3 8193.99,10382.2 8223,10379C8249.98,10376 8236.66,10313.1 8262,10309C8286.83,10305 8354.14,10317.8 8348,10289C8340,10251.5 8248.66,10136.7 8214,10084C8163.24,10006.8 8149.39,10052.8 8116,10058Z" style="fill:rgb(237,129,38);stroke:rgb(237,129,38);stroke-width:12.5px;"/>
                </g>
                <path d="M6965,9711C7404,8978.5 7979.22,9516.78 7973,9443C7959.36,9281.24 8052.01,9237.81 8087,9379C8091.44,9396.9 8136.83,9353.58 8164.96,9403.51C8180.61,9431.29 8144.61,9455.5 8146,9471C8147.3,9485.5 8185.49,9504.56 8180.82,9522.84C8172.27,9556.24 8067.7,9553.82 8109,9625C8193,9769.79 8180.18,10226.3 7948,10354C7755.73,10459.8 7212.73,10378.2 7022.73,10390C6948.9,10394.6 6767.24,10478.5 6759,10405C6747.05,10298.3 6843.25,9914.16 6965,9711Z" style="fill:rgb(253,211,81);stroke:rgb(253,211,81);stroke-width:12.5px;"/>
                <path d="M7086,10009C7435.94,10569.1 8022.26,10038 8007.85,9800.9C8005.41,9760.82 7945.61,9813.71 7905.52,9842.46C7757.09,9948.88 7503.09,10012.4 7524,9987C7533.44,9975.52 7681.76,9964.99 7795.91,9903.47C7934.5,9828.78 8067.69,9722.2 8031,9690C8020.87,9681.11 7870.87,9729.52 7728.31,9774.26C7572.13,9823.26 7422.07,9869.25 7407,9864.46C7388.17,9858.47 7615,9833.61 7751.37,9761.52C7862.57,9702.73 7861.92,9642.74 7858,9635C7851.38,9621.93 7663.04,9676.77 7553,9672" style="fill:none;stroke:rgb(246,203,86);stroke-width:12.5px;"/>
                <path d="M8116,10058C8066.17,10065.8 7936.39,10107 7915,10131C7884.46,10165.3 7933.43,10216.2 7981,10196C8009.5,10183.9 8079,10139.8 8105,10164C8131,10188.2 8124.3,10311.8 8137,10341C8142.89,10354.5 8167.72,10333 8181.21,10339C8195.55,10345.3 8193.99,10382.2 8223,10379C8249.98,10376 8236.66,10313.1 8262,10309C8286.83,10305 8354.14,10317.8 8348,10289C8340,10251.5 8248.66,10136.7 8214,10084C8163.24,10006.8 8149.39,10052.8 8116,10058Z" style="fill:rgb(237,129,38);stroke:rgb(237,129,38);stroke-width:12.5px;"/>
                <path d="M5933.66,9944C5933.53,9958.45 5947.5,9976.6 5933.66,9993.33C5469.2,10555.1 7255.11,10722.1 6997.09,10033.5C6988.42,10010.4 6974.52,9965.24 6975,9950C6993.56,9358.61 6736.23,9379.78 6604,9310C6547.86,9280.38 6717,9254.33 6780,9252C6821.99,9250.44 6834.25,9170.85 6785,9141C6693.11,9085.31 6461.32,9123.04 6369,9261C6339.63,9304.89 6361.35,9114.43 6243,9136C6124.46,9157.61 6273.21,9309.59 6225,9336C6067.55,9422.28 5937.11,9580.97 5933.66,9944Z" style="fill:rgb(253,211,81);stroke:rgb(253,211,81);stroke-width:12.5px;"/>
                <g>
                    <path d="M5945.58,10218C5996.7,10351.4 6352.18,10369.2 6409.87,10211" style="fill:rgb(237,115,24);"/>
                    <path d="M6099,10146C6061.69,10185.4 5987.51,10204.8 5961,10203C5939.44,10201.6 5942.44,10229.3 5958,10241C6109.15,10354.7 6331.99,10304.6 6400,10235C6419.11,10215.4 6412.71,10183.3 6361,10192C6341.57,10195.3 6292.83,10164.3 6268,10146C6245.19,10129.2 6231,10092.8 6212,10082C6195.2,10072.4 6170.82,10071.5 6154,10081C6135.17,10091.7 6116.37,10127.7 6099,10146Z" style="fill:rgb(237,129,38);stroke:rgb(237,129,38);stroke-width:12.5px;"/>
                    <g transform="matrix(0.886192,0.247599,-0.340886,1.22008,4163.11,-3753.7)">
                        <ellipse cx="6131.5" cy="10149" rx="6.5" ry="12" style="fill:rgb(150,57,9);"/>
                    </g>
                    <g transform="matrix(0.829121,-0.155019,0.214945,1.14963,-1042.36,-570.986)">
                        <ellipse cx="6131.5" cy="10149" rx="6.5" ry="12" style="fill:rgb(150,57,9);"/>
                    </g>
                    <path d="M6434,9929C6463.98,9901.01 6493.65,9900.56 6523,9928" style="fill:none;stroke:black;stroke-width:12.5px;"/>
                    <g transform="matrix(1,0,0,1,-410,10.645)">
                        <path d="M6434,9929C6463.98,9901.01 6493.65,9900.56 6523,9928" style="fill:none;stroke:black;stroke-width:12.5px;"/>
                    </g>
                </g>
                <g id="_-clear-sky-night" serif:id=" clear sky night" transform="matrix(1,0,0,1,7337.8,7089.58)">
                    <circle cx="1133" cy="1299" r="596" style="fill:rgb(240,240,240);"/>
                </g>
            </g>
        </g>
    </g>
</svg>
