<?xml version="1.0" encoding="UTF-8" standalone="no"?>
<!DOCTYPE svg PUBLIC "-//W3C//DTD SVG 1.1//EN" "http://www.w3.org/Graphics/SVG/1.1/DTD/svg11.dtd">
<svg width="100%" height="100%" viewBox="0 0 4417 4492" version="1.1" xmlns="http://www.w3.org/2000/svg" xmlns:xlink="http://www.w3.org/1999/xlink" xml:space="preserve" xmlns:serif="http://www.serif.com/" style="fill-rule:evenodd;clip-rule:evenodd;stroke-linecap:round;stroke-linejoin:round;stroke-miterlimit:1.5;">
    <g transform="matrix(1,0,0,1,0,-17258)">
        <g transform="matrix(1,0,0,1,-637.534,19235.7)">
            <g id="rain-night" serif:id="rain night">
            </g>
        </g>
        <g transform="matrix(1,0,0,1,-427.765,14901.5)">
            <g id="shower-rain-night" serif:id="shower rain night">
            </g>
        </g>
        <g transform="matrix(1,0,0,1,-427.765,19961.3)">
            <g id="rain-night1" serif:id="rain night">
            </g>
        </g>
        <g transform="matrix(1,0,0,1,-65,-345)">
            <g id="snow-day" serif:id="snow day">
            </g>
        </g>
        <g transform="matrix(1,0,0,1,-65,-345)">
            <g transform="matrix(1,0,0,1,6852,21735.3)">
                <g id="thunder-night" serif:id="thunder night">
                </g>
            </g>
        </g>
        <g transform="matrix(1,0,0,1,-58,8183.09)">
            <g transform="matrix(1,0,0,1,1506.5,24264.6)">
                <g id="mist-night" serif:id="mist night">
                </g>
            </g>
        </g>
        <g transform="matrix(1,0,0,1,-255.448,4307.05)">
            <g id="snow-night" serif:id="snow night">
            </g>
        </g>
        <g transform="matrix(1,0,0,1,-66,-2595)">
            <g transform="matrix(1,0,0,1,2531.23,23430.1)">
                <g id="thunder-day" serif:id="thunder day">
                </g>
            </g>
        </g>
        <g transform="matrix(1,0,0,1,-66,6011.23)">
            <g transform="matrix(1,0,0,1,-2635,25875.7)">
                <g id="mist-day" serif:id="mist day">
                </g>
            </g>
        </g>
        <rect id="Prancheta9" x="0" y="17258" width="4416.98" height="4492" style="fill:none;"/>
        <g id="Prancheta91" serif:id="Prancheta9">
            <g transform="matrix(1,0,0,1,-637.534,14108)">
                <g transform="matrix(1,0,0,1,290.929,-15870)">
                    <path d="M883,22576.9C724.898,22675.4 814.625,22906.7 877,23230C900.02,23349.3 1344.15,23363.5 1475.76,23302C1779.6,23159.9 2081.2,23243.1 2293.99,23351C2551.77,23481.7 2931.36,23125.2 2788,22967.1C2602.6,22762.6 2709.68,22761.2 2644,22576.9C2530.23,22257.5 2193.88,22108.4 1817.22,22430.1C1649.06,22573.7 1509.86,22643.1 1227,22530.1C1114.74,22485.3 957.363,22530.5 883,22576.9Z" style="fill:rgb(126,204,219);fill-opacity:0.37;"/>
                </g>
                <g transform="matrix(1,0,0,1,-5165,-6674.37)">
                    <path d="M7325,13300C7308.89,13334.2 7346.28,13472.1 7333,13488C7271.55,13561.5 7331.38,13583.8 7424,13581C7478.42,13579.4 7597.5,13653.2 7652,13585C7657.55,13578.1 7635.48,13559 7641,13552C7651.83,13538.3 7711.12,13537.4 7715,13507C7717.96,13483.8 7655.67,13485 7646,13470.6C7636.7,13456.9 7676.58,13440.3 7641,13422C7605.92,13403.9 7446.5,13469.5 7413,13441C7398.5,13428.7 7431.67,13317.5 7417,13294C7402.33,13270.5 7338.1,13272.2 7325,13300Z" style="fill:rgb(241,141,34);stroke:rgb(241,141,34);stroke-width:12.5px;"/>
                    <g transform="matrix(1,0,0,1,5451.33,-9160.79)">
                        <path d="M1858.54,22422.9C1831.2,22486.5 1791.77,22715.1 1858.54,22779.6C1925.31,22844 2198.9,22843.4 2259.17,22809.6C2319.45,22775.8 2313.74,22588 2220.17,22576.9C2167.54,22570.6 2088.53,22606.7 2055.6,22576.9C2022.68,22547 2055.15,22371.9 2022.6,22397.9C1913.06,22485.6 1880.39,22372.1 1858.54,22422.9Z" style="fill:rgb(135,113,177);stroke:rgb(135,113,177);stroke-width:16.67px;"/>
                    </g>
                    <path d="M7328,12110C7299.51,12116.6 7352.23,12216 7292,12190C6930.89,12034.4 6429.36,12316.7 6371,12398C6341.41,12439.2 6365.83,12246.8 6345,12237C6324.17,12227.2 6261.17,12220.5 6246,12339C6243.66,12357.3 6203.73,12302.5 6181.02,12341C6161.24,12374.6 6189.69,12419.8 6188,12435C6186.64,12447.2 6159.23,12418.3 6156.8,12456.3C6153.18,12512.8 6226.82,12500.8 6226,12519C6183.02,13473.3 7168.65,13442.1 7437.78,13319.1C7973.88,13074.1 7956.24,12550.2 7703,12095C7642.18,11985.7 7396.5,12094.2 7328,12110Z" style="fill:rgb(253,211,81);stroke:rgb(253,211,81);stroke-width:12.5px;"/>
                    <g transform="matrix(1,0,0,1,-102,-8.67769)">
                        <path d="M7015.25,13254C7031.34,13216.9 7119.8,13219.2 7136.54,13256C7154.67,13295.8 7096.63,13451.8 7124,13493C7150.61,13533 7324.65,13557.7 7314,13610C7310.13,13629 7241.68,13611.1 7183.88,13628.9C7138.42,13643 7104.31,13695.2 7079,13696C7034.64,13697.4 6977.12,13653.5 6969,13621C6960.88,13588.5 6991.55,13530.6 7030.25,13501C7071.5,13469.5 6997.53,13294.8 7015.25,13254Z" style="fill:rgb(241,141,34);stroke:rgb(241,141,34);stroke-width:12.5px;"/>
                    </g>
                    <g transform="matrix(1,0,0,1,5026.18,-9060.79)">
                        <path d="M1858.54,22422.9C1831.2,22486.5 1791.77,22715.1 1858.54,22779.6C1925.31,22844 2198.9,22843.4 2259.17,22809.6C2319.45,22775.8 2313.74,22588 2220.17,22576.9C2167.54,22570.6 2088.53,22606.7 2055.6,22576.9C2022.68,22547 2055.15,22371.9 2022.6,22397.9C1913.06,22485.6 1880.39,22372.1 1858.54,22422.9Z" style="fill:rgb(135,113,177);stroke:rgb(135,113,177);stroke-width:16.67px;"/>
                    </g>
                    <path d="M7361,12764C7195.87,13304.1 6449.54,13062.3 6410,12647C6406.93,12614.7 6478.26,12644.9 6500,12669C6603.72,12783.8 6884.88,12819.9 6869,12819C6833.33,12816.9 6429.74,12725 6399,12556C6393.37,12525.1 6530.8,12529.2 6561,12546C6691.71,12618.5 7039.58,12692.5 7037.25,12680C7034.92,12667.5 6605.26,12652.2 6547,12471C6540.75,12451.6 6636.71,12467.3 6650,12475C6738.83,12526.5 6850.94,12513.5 6907,12507" style="fill:none;stroke:rgb(237,194,76);stroke-width:12.5px;"/>
                    <path d="M6970,11673C6643.37,12162.9 7470.65,12281.9 7836,12143C7994.28,12082.8 8047.15,11845 8036,11676C8024.02,11494.3 8045.59,11222.3 7764.1,11053C7703.34,11016.4 7864.4,10885 7715.1,10846C7617.85,10820.6 7619.18,11069.6 7609,11006.3C7593.6,10910.6 7408.63,10770.2 7185,10852C7151.56,10864.2 7146.08,10962.8 7189,10957C7217.63,10953.2 7432.85,10984.6 7369,11006.3C7166.29,11075.4 6874.32,11348.8 6985.46,11649.8C6988.83,11658.9 6974.91,11665.6 6970,11673Z" style="fill:rgb(253,211,81);stroke:rgb(253,211,81);stroke-width:12.5px;"/>
                    <g>
                        <path d="M8057.43,11672C8016.81,11675.3 8036.72,11858.8 7912,11894C7823.9,11918.8 7752.16,12078.9 7824,12141C7900.2,12206.9 8129.17,12199.8 8197,12197.1C8223.55,12196.1 8240.12,12150 8231,12125C8219.67,12094 8083.19,12034.8 8129,12011C8330.17,11906.3 8425.85,11768.8 8448,11707C8481.45,11613.7 8377.74,11649.4 8335,11669C8280.2,11694.2 8106.62,11668 8057.43,11672Z" style="fill:rgb(236,120,24);stroke:rgb(236,120,24);stroke-width:12.5px;"/>
                        <path d="M8037.43,12020C7989.81,12067.8 8211.77,12146.9 8226,12144C8255.52,12138 8141.74,12049.1 8124.58,12020C8118.38,12009.5 8101.13,12018.9 8083.59,12020.5C8061.28,12022.6 8038.49,12018.9 8037.43,12020Z" style="fill:rgb(220,77,1);stroke:rgb(220,77,1);stroke-width:12.5px;"/>
                        <g transform="matrix(1,0,0,1,0,-16)">
                            <ellipse cx="8121.5" cy="11749.5" rx="36.5" ry="15.5" style="fill:rgb(128,49,9);"/>
                        </g>
                        <g transform="matrix(1,0,0,1,-23,-6)">
                            <ellipse cx="7939.5" cy="11614.5" rx="31.5" ry="56.5"/>
                        </g>
                    </g>
                </g>
                <g transform="matrix(1,0,0,1,290.929,-15870)">
                    <path d="M2590.5,20862.3C2616.67,20783.8 2630.84,20116.6 2236,20023C1526.59,19854.8 1298.01,20417.3 1279.29,20841.3C1254.13,21411 1728.45,21286 1596.97,21321C1517.59,21342.2 1139.79,21341.2 929,21561C858.927,21634.1 874.793,22002.5 1127.96,22223.5C1389.25,22451.6 1949.38,22375 2069.39,22369C2565.24,22344.3 2548.39,21844.7 2336.24,21442.9C2328.2,21427.7 2315.16,21378.6 2303.69,21368.7C2034.19,21136.1 1911.52,20633.8 2079,20494C2665.59,20004.3 2564.33,20940.8 2590.5,20862.3Z" style="fill:rgb(155,112,238);"/>
                </g>
                <g transform="matrix(1,0,0,1,281.232,-15861)">
                    <path d="M2303.69,21368.7C2378.46,21372.8 2375.15,21493.3 2456,21504" style="fill:none;stroke:rgb(135,113,177);stroke-width:16.67px;"/>
                </g>
                <g transform="matrix(0.686417,-0.220685,0.259767,0.807978,-4547.27,-11233.1)">
                    <path d="M2303.69,21368.7C2378.46,21372.8 2375.15,21493.3 2456,21504" style="fill:none;stroke:rgb(135,113,177);stroke-width:21.17px;"/>
                </g>
                <g transform="matrix(1,0,0,1,290.929,-15870)">
                    <ellipse cx="2319.5" cy="21535.5" rx="25.504" ry="31.5" style="fill:rgb(107,79,160);"/>
                </g>
                <g transform="matrix(1,0,0,1,341.936,-15698)">
                    <ellipse cx="2319.5" cy="21535.5" rx="25.504" ry="31.5" style="fill:rgb(107,79,160);"/>
                </g>
                <g transform="matrix(1,0,0,1,389.944,-15538)">
                    <ellipse cx="2319.5" cy="21535.5" rx="25.504" ry="31.5" style="fill:rgb(107,79,160);"/>
                </g>
                <g id="shower-rain-day" serif:id="shower rain day" transform="matrix(1,0,0,1,2948.93,-6075.8)">
                    <g transform="matrix(1,0,0,1,-267.864,-328)">
                        <g transform="matrix(0.773816,0.203474,-0.203474,0.773816,2380.63,2238.19)">
                            <path d="M930,10780C930,10765.6 918.35,10754 904,10754C889.65,10754 878,10765.6 878,10780L878,10854C878,10868.4 889.65,10880 904,10880C918.35,10880 930,10868.4 930,10854L930,10780Z" style="fill:rgb(111,218,231);"/>
                        </g>
                        <g transform="matrix(0.876309,0.230425,-0.230425,0.876309,2474.46,1384.32)">
                            <path d="M930,10780C930,10765.6 918.35,10754 904,10754C889.65,10754 878,10765.6 878,10780L878,10854C878,10868.4 889.65,10880 904,10880C918.35,10880 930,10868.4 930,10854L930,10780Z" style="fill:rgb(111,218,231);"/>
                        </g>
                        <g transform="matrix(0.967124,0.254304,-0.254304,0.967124,3464.53,627.726)">
                            <path d="M930,10780C930,10765.6 918.35,10754 904,10754C889.65,10754 878,10765.6 878,10780L878,10854C878,10868.4 889.65,10880 904,10880C918.35,10880 930,10868.4 930,10854L930,10780Z" style="fill:rgb(111,218,231);"/>
                        </g>
                        <g transform="matrix(0.967124,0.254304,-0.254304,0.967124,3716.93,630.938)">
                            <path d="M930,10780C930,10765.6 918.35,10754 904,10754C889.65,10754 878,10765.6 878,10780L878,10854C878,10868.4 889.65,10880 904,10880C918.35,10880 930,10868.4 930,10854L930,10780Z" style="fill:rgb(111,218,231);"/>
                        </g>
                        <g transform="matrix(0.789918,0.207708,-0.207708,0.789918,2607.69,2260.56)">
                            <path d="M930,10780C930,10765.6 918.35,10754 904,10754C889.65,10754 878,10765.6 878,10780L878,10854C878,10868.4 889.65,10880 904,10880C918.35,10880 930,10868.4 930,10854L930,10780Z" style="fill:rgb(111,218,231);"/>
                        </g>
                        <g transform="matrix(0.829259,0.218053,-0.218053,0.829259,3208.39,1662.14)">
                            <path d="M930,10780C930,10765.6 918.35,10754 904,10754C889.65,10754 878,10765.6 878,10780L878,10854C878,10868.4 889.65,10880 904,10880C918.35,10880 930,10868.4 930,10854L930,10780Z" style="fill:rgb(111,218,231);"/>
                        </g>
                        <g transform="matrix(0.823719,0.216596,-0.216596,0.823719,3355.59,1974.26)">
                            <path d="M930,10780C930,10765.6 918.35,10754 904,10754C889.65,10754 878,10765.6 878,10780L878,10854C878,10868.4 889.65,10880 904,10880C918.35,10880 930,10868.4 930,10854L930,10780Z" style="fill:rgb(111,218,231);"/>
                        </g>
                        <g transform="matrix(0.857202,0.225401,-0.225401,0.857202,3614.4,1544.25)">
                            <path d="M930,10780C930,10765.6 918.35,10754 904,10754C889.65,10754 878,10765.6 878,10780L878,10854C878,10868.4 889.65,10880 904,10880C918.35,10880 930,10868.4 930,10854L930,10780Z" style="fill:rgb(111,218,231);"/>
                        </g>
                        <g transform="matrix(1.00109,0.263235,-0.263235,1.00109,3217.42,170.978)">
                            <path d="M930,10780C930,10765.6 918.35,10754 904,10754C889.65,10754 878,10765.6 878,10780L878,10854C878,10868.4 889.65,10880 904,10880C918.35,10880 930,10868.4 930,10854L930,10780Z" style="fill:rgb(111,218,231);"/>
                        </g>
                        <g transform="matrix(0.804799,0.211621,-0.211621,0.804799,2565.42,2358.89)">
                            <path d="M930,10780C930,10765.6 918.35,10754 904,10754C889.65,10754 878,10765.6 878,10780L878,10854C878,10868.4 889.65,10880 904,10880C918.35,10880 930,10868.4 930,10854L930,10780Z" style="fill:rgb(111,218,231);"/>
                        </g>
                        <g transform="matrix(0.804799,0.211621,-0.211621,0.804799,2767.42,1907.89)">
                            <path d="M930,10780C930,10765.6 918.35,10754 904,10754C889.65,10754 878,10765.6 878,10780L878,10854C878,10868.4 889.65,10880 904,10880C918.35,10880 930,10868.4 930,10854L930,10780Z" style="fill:rgb(111,218,231);"/>
                        </g>
                        <g transform="matrix(0.804799,0.211621,-0.211621,0.804799,2957.42,2048.37)">
                            <path d="M930,10780C930,10765.6 918.35,10754 904,10754C889.65,10754 878,10765.6 878,10780L878,10854C878,10868.4 889.65,10880 904,10880C918.35,10880 930,10868.4 930,10854L930,10780Z" style="fill:rgb(111,218,231);"/>
                        </g>
                        <g transform="matrix(0.804799,0.211621,-0.211621,0.804799,3061.42,2242.8)">
                            <path d="M930,10780C930,10765.6 918.35,10754 904,10754C889.65,10754 878,10765.6 878,10780L878,10854C878,10868.4 889.65,10880 904,10880C918.35,10880 930,10868.4 930,10854L930,10780Z" style="fill:rgb(111,218,231);"/>
                        </g>
                        <g transform="matrix(0.804799,0.211621,-0.211621,0.804799,3369.08,1967.94)">
                            <path d="M930,10780C930,10765.6 918.35,10754 904,10754C889.65,10754 878,10765.6 878,10780L878,10854C878,10868.4 889.65,10880 904,10880C918.35,10880 930,10868.4 930,10854L930,10780Z" style="fill:rgb(111,218,231);"/>
                        </g>
                        <g transform="matrix(0.804799,0.211621,-0.211621,0.804799,3606.08,1881.37)">
                            <path d="M930,10780C930,10765.6 918.35,10754 904,10754C889.65,10754 878,10765.6 878,10780L878,10854C878,10868.4 889.65,10880 904,10880C918.35,10880 930,10868.4 930,10854L930,10780Z" style="fill:rgb(111,218,231);"/>
                        </g>
                    </g>
                    <g transform="matrix(1,0,0,1,-22.5393,2306)">
                        <g transform="matrix(1.41292,0,0,1.41292,-266.732,2691.34)">
                            <path d="M681,3769C792.068,3767.86 1496.06,3785.26 1563,3769C1682.66,3739.93 1720.6,3422.02 1459,3454C1441.37,3456.16 1491.66,3337.47 1430.84,3289.53C1364.72,3237.43 1271.27,3259.68 1223,3298C1214.3,3304.91 1226.09,3047.36 963.045,3080.24C744.434,3107.57 791.051,3319.37 770,3360C768.738,3362.44 558.14,3334.91 539.411,3551.23C530.515,3653.97 595.606,3769.87 681,3769Z" style="fill:rgb(240,240,240);"/>
                        </g>
                        <g transform="matrix(1.41292,0,0,1.41292,-416.732,2809.84)">
                            <path d="M681,3769C792.068,3767.86 1496.06,3785.26 1563,3769C1682.66,3739.93 1720.6,3422.02 1459,3454C1441.37,3456.16 1491.66,3337.47 1430.84,3289.53C1364.72,3237.43 1271.27,3259.68 1223,3298C1214.3,3304.91 1226.09,3047.36 963.045,3080.24C744.434,3107.57 791.051,3319.37 770,3360C768.738,3362.44 558.14,3334.91 539.411,3551.23C530.515,3653.97 595.606,3769.87 681,3769Z" style="fill:rgb(249,255,255);"/>
                        </g>
                    </g>
                </g>
            </g>
        </g>
    </g>
</svg>
