<?xml version="1.0" encoding="UTF-8" standalone="no"?>
<!DOCTYPE svg PUBLIC "-//W3C//DTD SVG 1.1//EN" "http://www.w3.org/Graphics/SVG/1.1/DTD/svg11.dtd">
<svg width="100%" height="100%" viewBox="0 0 3963 4155" version="1.1" xmlns="http://www.w3.org/2000/svg" xmlns:xlink="http://www.w3.org/1999/xlink" xml:space="preserve" xmlns:serif="http://www.serif.com/" style="fill-rule:evenodd;clip-rule:evenodd;stroke-linecap:round;stroke-linejoin:round;stroke-miterlimit:1.5;">
    <g transform="matrix(1,0,0,1,-454,-32345)">
        <g transform="matrix(1,0,0,1,-58,8183.09)">
            <g transform="matrix(1,0,0,1,1506.5,24264.6)">
                <g id="mist-night" serif:id="mist night">
                </g>
            </g>
        </g>
        <g transform="matrix(1,0,0,1,-255.448,4307.05)">
            <g id="snow-night" serif:id="snow night">
            </g>
        </g>
        <g transform="matrix(1,0,0,1,-66,6011.23)">
            <g transform="matrix(1,0,0,1,-2635,25875.7)">
                <g id="mist-day" serif:id="mist day">
                </g>
            </g>
        </g>
        <g id="Prancheta15" transform="matrix(1,0,0,1.02974,0,-1085.5)">
            <rect x="454" y="32465" width="3962.97" height="4035" style="fill:none;"/>
            <g transform="matrix(1,0,0,0.971119,-65,719.116)">
                <g id="snow-day" serif:id="snow day" transform="matrix(1,0,0,1,-3025.88,29808.3)">
                    <g>
                        <circle cx="5872" cy="4154" r="42" style="fill:rgb(251,253,253);"/>
                        <circle cx="6043" cy="4242" r="46" style="fill:rgb(251,253,253);"/>
                        <g transform="matrix(1,0,0,1,33,226)">
                            <circle cx="6043" cy="4242" r="46" style="fill:rgb(251,253,253);"/>
                        </g>
                        <g transform="matrix(1.37522,0,0,1.37522,-1939.21,-1452.44)">
                            <circle cx="6043" cy="4242" r="46" style="fill:rgb(251,253,253);"/>
                        </g>
                        <g transform="matrix(1,0,0,1,219,318)">
                            <circle cx="6043" cy="4242" r="46" style="fill:rgb(251,253,253);"/>
                        </g>
                        <g transform="matrix(0.673913,0,0,0.673913,2049.54,1858.26)">
                            <circle cx="6043" cy="4242" r="46" style="fill:rgb(251,253,253);"/>
                        </g>
                        <g transform="matrix(0.750447,0,0,0.782609,1672.57,962.174)">
                            <circle cx="6043" cy="4242" r="46" style="fill:rgb(251,253,253);"/>
                        </g>
                        <g transform="matrix(0.750447,0,0,0.782609,1899.57,864.174)">
                            <circle cx="6043" cy="4242" r="46" style="fill:rgb(251,253,253);"/>
                        </g>
                        <g transform="matrix(1,0,0,1,42,30)">
                            <circle cx="5872" cy="4350" r="42" style="fill:rgb(251,253,253);"/>
                        </g>
                        <g transform="matrix(1,0,0,1,-96,-42)">
                            <ellipse cx="6322" cy="4154" rx="44" ry="42" style="fill:rgb(251,253,253);"/>
                        </g>
                        <g transform="matrix(0.715909,0,0,0.715909,1419.52,1632.18)">
                            <ellipse cx="6322" cy="4154" rx="44" ry="42" style="fill:rgb(251,253,253);"/>
                        </g>
                        <g transform="matrix(1,0,0,1,727,-9)">
                            <circle cx="5872" cy="4154" r="42" style="fill:rgb(251,253,253);"/>
                        </g>
                        <g transform="matrix(1,0,0,1,727,-9)">
                            <circle cx="6043" cy="4242" r="46" style="fill:rgb(251,253,253);"/>
                        </g>
                        <g transform="matrix(1,0,0,1,760,217)">
                            <circle cx="6043" cy="4242" r="46" style="fill:rgb(251,253,253);"/>
                        </g>
                        <g transform="matrix(0.750447,0,0,0.782609,2399.57,953.174)">
                            <circle cx="6043" cy="4242" r="46" style="fill:rgb(251,253,253);"/>
                        </g>
                        <g transform="matrix(1,0,0,1,769,21)">
                            <circle cx="5872" cy="4350" r="42" style="fill:rgb(251,253,253);"/>
                        </g>
                        <g transform="matrix(1,0,0,1,637,197)">
                            <circle cx="5872" cy="4350" r="42" style="fill:rgb(251,253,253);"/>
                        </g>
                        <g transform="matrix(0.630952,0,0,0.630952,2735.55,1936.86)">
                            <circle cx="5872" cy="4350" r="42" style="fill:rgb(251,253,253);"/>
                        </g>
                        <g transform="matrix(0.630952,0,0,0.630952,2872.55,1994.36)">
                            <circle cx="5872" cy="4350" r="42" style="fill:rgb(251,253,253);"/>
                        </g>
                        <g transform="matrix(0.630952,0,0,0.630952,2617.55,2062.36)">
                            <circle cx="5872" cy="4350" r="42" style="fill:rgb(251,253,253);"/>
                        </g>
                        <g transform="matrix(1,0,0,1,631,-51)">
                            <ellipse cx="6322" cy="4154" rx="44" ry="42" style="fill:rgb(251,253,253);"/>
                        </g>
                        <g transform="matrix(0.715909,0,0,0.715909,2146.52,1623.18)">
                            <ellipse cx="6322" cy="4154" rx="44" ry="42" style="fill:rgb(251,253,253);"/>
                        </g>
                    </g>
                    <g transform="matrix(1,0,0,1,5267,-4033)">
                        <g transform="matrix(1.41292,0,0,1.41292,-266.732,2691.34)">
                            <path d="M681,3769C792.068,3767.86 1496.06,3785.26 1563,3769C1682.66,3739.93 1720.6,3422.02 1459,3454C1441.37,3456.16 1491.66,3337.47 1430.84,3289.53C1364.72,3237.43 1271.27,3259.68 1223,3298C1214.3,3304.91 1226.09,3047.36 963.045,3080.24C744.434,3107.57 791.051,3319.37 770,3360C768.738,3362.44 558.14,3334.91 539.411,3551.23C530.515,3653.97 595.606,3769.87 681,3769Z" style="fill:rgb(251,253,253);"/>
                        </g>
                        <g transform="matrix(1.41292,0,0,1.41292,-416.732,2809.84)">
                            <path d="M681,3769C792.068,3767.86 1496.06,3785.26 1563,3769C1682.66,3739.93 1720.6,3422.02 1459,3454C1441.37,3456.16 1491.66,3337.47 1430.84,3289.53C1364.72,3237.43 1271.27,3259.68 1223,3298C1214.3,3304.91 1226.09,3047.36 963.045,3080.24C744.434,3107.57 791.051,3319.37 770,3360C768.738,3362.44 558.14,3334.91 539.411,3551.23C530.515,3653.97 595.606,3769.87 681,3769Z" style="fill:rgb(251,253,253);"/>
                        </g>
                    </g>
                </g>
                <g transform="matrix(1,0,0,1,33.7052,68.719)">
                    <ellipse cx="1877.42" cy="36281" rx="674.254" ry="401.002" style="fill:white;stroke:rgb(251,253,253);stroke-width:16.67px;"/>
                </g>
                <g transform="matrix(1.17723,0,0,1.21197,-299.036,-8045.74)">
                    <ellipse cx="1877.42" cy="36281" rx="674.254" ry="401.002" style="fill:white;stroke:rgb(251,253,253);stroke-width:13.95px;"/>
                </g>
                <g transform="matrix(1,0,0,1,-2545.67,25544.7)">
                    <g>
                        <path d="M4199,9651C4184.41,9657.07 4203.8,9702.9 4190.71,9721.04C4040.49,9929.27 3633.73,10421.3 4082,10631C4263.6,10716 4834.27,10730.2 4966.53,10584C5153.2,10377.6 4918.65,9926.45 4791.06,9723.31C4779.44,9704.8 4783.61,9664.99 4769,9656.82C4668.72,9600.74 4308.52,9605.44 4199,9651Z" style="fill:rgb(255,218,104);stroke:rgb(254,217,104);stroke-width:12.5px;"/>
                        <g>
                            <path d="M4821,9698C4760.39,9831.48 5053.82,10348.6 5155,10336C5226.16,10327.1 5234.25,10049.5 5180,9945C5114,9817.83 4847.64,9639.33 4821,9698Z" style="fill:rgb(255,218,105);stroke:rgb(246,203,86);stroke-width:12.5px;"/>
                            <path d="M4966.53,9881C5030.69,9918.67 5095.85,9902.33 5127,9884" style="fill:rgb(255,218,105);stroke:rgb(246,203,86);stroke-width:12.5px;"/>
                            <g transform="matrix(0.998995,-0.0448212,0.0448212,0.998995,-366.828,414.144)">
                                <path d="M4966.53,9881C5030.69,9918.67 5095.85,9902.33 5127,9884" style="fill:rgb(255,218,105);stroke:rgb(246,203,86);stroke-width:12.5px;"/>
                            </g>
                            <g transform="matrix(-1,0,0,1,8964.18,-0.949229)">
                                <path d="M4821,9698C4760.39,9831.48 5053.82,10348.6 5155,10336C5226.16,10327.1 5234.25,10049.5 5180,9945C5114,9817.83 4847.64,9639.33 4821,9698Z" style="fill:rgb(255,218,105);stroke:rgb(246,203,86);stroke-width:12.5px;"/>
                            </g>
                            <g transform="matrix(-1,0,0,1,8964.18,-0.949229)">
                                <path d="M4966.53,9881C5030.69,9918.67 5095.85,9902.33 5127,9884" style="fill:rgb(255,218,105);stroke:rgb(246,203,86);stroke-width:12.5px;"/>
                            </g>
                            <g transform="matrix(-0.998995,-0.0448212,-0.0448212,0.998995,9331.01,413.194)">
                                <path d="M4966.53,9881C5030.69,9918.67 5095.85,9902.33 5127,9884" style="fill:rgb(255,218,105);stroke:rgb(246,203,86);stroke-width:12.5px;"/>
                            </g>
                        </g>
                        <path d="M4744,10546C4736.14,10511.5 4774,10440.8 4804.84,10451C4835.67,10461.2 4905.64,10633.7 4929,10607C4952.36,10580.3 4898.86,10230.4 4950,10276C5001.47,10321.9 5139.38,10351.5 5215.35,10312C5250.81,10293.6 5241.37,10393.2 5288.09,10432.4C5343.59,10479 5461.43,10479.6 5427,10511C5366.52,10566.1 5026.86,10710.5 4948,10752C4908.94,10772.6 4891.07,10684.4 4860,10653C4826,10618.7 4751.86,10580.5 4744,10546Z" style="fill:rgb(237,129,38);stroke:rgb(237,129,38);stroke-width:12.5px;"/>
                        <g transform="matrix(-1,0,0,1,8825.75,0)">
                            <path d="M4744,10546C4736.14,10511.5 4774,10440.8 4804.84,10451C4835.67,10461.2 4905.64,10633.7 4929,10607C4952.36,10580.3 4898.86,10230.4 4950,10276C5001.47,10321.9 5139.38,10351.5 5215.35,10312C5250.81,10293.6 5241.37,10393.2 5288.09,10432.4C5343.59,10479 5461.43,10479.6 5427,10511C5366.52,10566.1 5026.86,10710.5 4948,10752C4908.94,10772.6 4891.07,10684.4 4860,10653C4826,10618.7 4751.86,10580.5 4744,10546Z" style="fill:rgb(237,129,38);stroke:rgb(237,129,38);stroke-width:12.5px;"/>
                        </g>
                        <path d="M4224,8564C4290.1,8547.29 4158.73,8385.44 4243,8350C4356.66,8302.2 4348.27,8468.06 4370,8473C4383.28,8476.02 4612.35,8238.92 4766,8354C4881.8,8440.73 4719.54,8486.38 4637.25,8485.66C4606.23,8485.39 4602.91,8515.66 4618,8519C5080.92,8621.36 5004.24,9119.51 5007.59,9151.15C5008.03,9155.29 5014.49,9161.06 5018,9166C5174.47,9386.57 5099.36,9616.92 4794,9646C4637.43,9660.91 4360.09,9658.21 4199,9651C3924.67,9638.73 3780.04,9442.44 3939.66,9192C3941.65,9188.87 3946.34,9186.19 3945.68,9182.39C3895.7,8892.43 4067.45,8603.58 4224,8564Z" style="fill:rgb(255,218,104);stroke:rgb(254,217,104);stroke-width:12.5px;"/>
                        <g>
                            <path d="M4150.89,9333C4169.56,9448 4341.99,9463.83 4436.76,9465C4531.54,9466.17 4704.76,9444.67 4722.64,9330" style="fill:none;stroke:rgb(255,116,0);stroke-width:12.5px;"/>
                            <path d="M4398,9157C4365.17,9175.67 4323.67,9255 4283,9282C4244.26,9307.72 4166.89,9283.22 4154,9319C4122.26,9407.1 4341.67,9459.17 4435,9460C4528.33,9460.83 4743.5,9409.67 4721,9323C4711.55,9286.58 4628.2,9304.46 4591,9278C4552.33,9250.5 4513.17,9179.17 4482,9159C4458.48,9143.78 4422.35,9143.16 4398,9157Z" style="fill:rgb(237,129,38);stroke:rgb(237,129,38);stroke-width:12.5px;"/>
                            <g transform="matrix(0.681422,0.226723,-0.298567,0.89735,4154.14,-40.9199)">
                                <ellipse cx="4379.5" cy="9230.5" rx="10.5" ry="22.5" style="fill:rgb(147,44,10);"/>
                            </g>
                            <g transform="matrix(-0.681422,0.226723,0.298567,0.89735,4716.86,-40.9199)">
                                <ellipse cx="4379.5" cy="9230.5" rx="10.5" ry="22.5" style="fill:rgb(147,44,10);"/>
                            </g>
                            <g transform="matrix(1,0,0,1,-15,0)">
                                <ellipse cx="4250.5" cy="9115" rx="33.5" ry="65" style="stroke:black;stroke-width:12.5px;"/>
                            </g>
                            <g transform="matrix(1,0,0,1,395,0)">
                                <ellipse cx="4250.5" cy="9115" rx="33.5" ry="65" style="stroke:black;stroke-width:12.5px;"/>
                            </g>
                        </g>
                    </g>
                </g>
                <path d="M1636,35201.5C1582.69,35216.8 1622.24,35349.4 1676,35363C1775.19,35388.1 2137.14,35378.9 2231.17,35352C2279.47,35338.2 2282.79,35184.7 2240.17,35201.5C2117.47,35250 1730.03,35174.6 1636,35201.5Z" style="fill:rgb(135,113,177);stroke:rgb(135,113,177);stroke-width:16.67px;"/>
                <path d="M2041,35377.7C2001.67,35435.8 2063.5,35624.2 1990,35699.9C1949.17,35742 2150.33,35881.6 2235,35699.9C2261.55,35643 2176.72,35388.1 2226,35351.7C2289.77,35304.6 2075.94,35326.2 2041,35377.7Z" style="fill:rgb(135,113,177);stroke:rgb(135,113,177);stroke-width:16.67px;"/>
                <path d="M1905.2,33735C2381.74,33733.1 2527.9,34475.5 2407.2,34360C2263.84,34222.8 1536.23,34231.5 1405,34378C1291.93,34504.2 1426.17,33736.9 1905.2,33735Z" style="fill:rgb(135,113,177);stroke:rgb(135,113,177);stroke-width:16.67px;"/>
                <g transform="matrix(1,0,0,1,-1.66817,-45)">
                    <path d="M1352.32,34387C1322.26,34411.3 1365.76,34536.3 1397.32,34514C1579.87,34384.9 2270.23,34372.3 2447.14,34534.4C2482.12,34566.4 2511.49,34406.5 2475.14,34376C2208.06,34152 1491.29,34274.7 1352.32,34387Z" style="fill:rgb(135,113,177);stroke:rgb(129,105,175);stroke-width:16.67px;"/>
                </g>
            </g>
        </g>
    </g>
</svg>
