<?xml version="1.0" encoding="UTF-8" standalone="no"?>
<!DOCTYPE svg PUBLIC "-//W3C//DTD SVG 1.1//EN" "http://www.w3.org/Graphics/SVG/1.1/DTD/svg11.dtd">
<svg width="100%" height="100%" viewBox="0 0 4224 3856" version="1.1" xmlns="http://www.w3.org/2000/svg" xmlns:xlink="http://www.w3.org/1999/xlink" xml:space="preserve" xmlns:serif="http://www.serif.com/" style="fill-rule:evenodd;clip-rule:evenodd;stroke-linecap:round;stroke-linejoin:round;stroke-miterlimit:1.5;">
    <g transform="matrix(1,0,0,1,-454,-36814)">
        <g transform="matrix(1,0,0,1,-58,8183.09)">
            <g transform="matrix(1,0,0,1,1506.5,24264.6)">
                <g id="mist-night" serif:id="mist night">
                </g>
            </g>
        </g>
        <g id="Prancheta17" transform="matrix(1,0,0,1.02882,0,-1171.92)">
            <rect x="454" y="36922" width="4224" height="3748" style="fill:none;"/>
            <clipPath id="_clip1">
                <rect x="454" y="36922" width="4224" height="3748"/>
            </clipPath>
            <g clip-path="url(#_clip1)">
                <g transform="matrix(1,0,0,0.971992,-66,6981.96)">
                    <g transform="matrix(1,0,0,1,-2209.2,20771.8)">
                        <g transform="matrix(1,0,0,1,-3195.16,-44.1839)">
                            <path d="M7325,13300C7308.89,13334.2 7346.28,13472.1 7333,13488C7271.55,13561.5 7331.38,13583.8 7424,13581C7478.42,13579.4 7597.5,13653.2 7652,13585C7657.55,13578.1 7635.48,13559 7641,13552C7651.83,13538.3 7711.12,13537.4 7715,13507C7717.96,13483.8 7655.67,13485 7646,13470.6C7636.7,13456.9 7676.58,13440.3 7641,13422C7605.92,13403.9 7446.5,13469.5 7413,13441C7398.5,13428.7 7431.67,13317.5 7417,13294C7402.33,13270.5 7338.1,13272.2 7325,13300Z" style="fill:rgb(241,141,34);stroke:rgb(241,141,34);stroke-width:12.5px;"/>
                        </g>
                        <g transform="matrix(1,0,0,1,-3195.16,-44.1839)">
                            <path d="M7328,12110C7299.51,12116.6 7352.23,12216 7292,12190C6930.89,12034.4 6429.36,12316.7 6371,12398C6341.41,12439.2 6365.83,12246.8 6345,12237C6324.17,12227.2 6261.17,12220.5 6246,12339C6243.66,12357.3 6203.73,12302.5 6181.02,12341C6161.24,12374.6 6189.69,12419.8 6188,12435C6186.64,12447.2 6159.23,12418.3 6156.8,12456.3C6153.18,12512.8 6226.82,12500.8 6226,12519C6183.02,13473.3 7168.65,13442.1 7437.78,13319.1C7973.88,13074.1 7956.24,12550.2 7703,12095C7642.18,11985.7 7396.5,12094.2 7328,12110Z" style="fill:rgb(253,211,81);stroke:rgb(253,211,81);stroke-width:12.5px;"/>
                        </g>
                        <g transform="matrix(1,0,0,1,-3195.16,-44.1839)">
                            <path d="M7015.25,13254C7031.34,13216.9 7119.8,13219.2 7136.54,13256C7154.67,13295.8 7096.63,13451.8 7124,13493C7150.61,13533 7324.65,13557.7 7314,13610C7310.13,13629 7241.68,13611.1 7183.88,13628.9C7138.42,13643 7104.31,13695.2 7079,13696C7034.64,13697.4 7009.5,13636.2 6969,13621C6928.5,13605.8 6835.25,13626.6 6836,13605C6837.43,13564.2 6991.55,13530.6 7030.25,13501C7071.5,13469.5 6997.53,13294.8 7015.25,13254Z" style="fill:rgb(241,141,34);stroke:rgb(241,141,34);stroke-width:12.5px;"/>
                        </g>
                        <g transform="matrix(1,0,0,1,-3195.16,-44.1839)">
                            <path d="M7361,12764C7195.87,13304.1 6449.54,13062.3 6410,12647C6406.93,12614.7 6478.26,12644.9 6500,12669C6603.72,12783.8 6884.88,12819.9 6869,12819C6833.33,12816.9 6429.74,12725 6399,12556C6393.37,12525.1 6530.8,12529.2 6561,12546C6691.71,12618.5 7039.58,12692.5 7037.25,12680C7034.92,12667.5 6605.26,12652.2 6547,12471C6540.75,12451.6 6636.71,12467.3 6650,12475C6738.83,12526.5 6850.94,12513.5 6907,12507" style="fill:none;stroke:rgb(237,194,76);stroke-width:12.5px;"/>
                        </g>
                        <path d="M4030,12080C3520.17,11955.2 3713.6,11698.1 3768,11613C3772.81,11605.5 3785.69,11598.9 3783.39,11589.2C3707.11,11266.3 3972.05,10950.8 4172,10945C4222.14,10943.6 4122.58,10877 4003.19,10885.4C3958.61,10888.6 3938.74,10815.8 3978,10786C4167.65,10641.8 4414.91,10844.6 4405,10920C4396.39,10985.4 4426.54,10715.5 4547,10782C4638.32,10832.5 4511.98,10949.5 4564,10976C4836.4,11114.9 4842.6,11391.6 4830.47,11597.7C4830.06,11604.6 4837.97,11609.3 4842,11615C5102.04,11983.3 4702.34,12119.8 4421,12100C4290.82,12090.9 4156.76,12111 4030,12080Z" style="fill:rgb(253,211,81);stroke:rgb(253,211,81);stroke-width:12.5px;"/>
                        <g>
                            <g transform="matrix(1.08533,0,0,1.07627,-396.766,-888.356)">
                                <ellipse cx="4335.7" cy="11549" rx="29.298" ry="59"/>
                            </g>
                            <g transform="matrix(1.18773,0,0,1.07627,-430.728,-888.356)">
                                <ellipse cx="4335.7" cy="11549" rx="29.298" ry="59"/>
                            </g>
                            <path d="M4382,11897C4404.79,11838 4543.41,11820.9 4540,11667C4539.26,11633.4 4693.75,11670.2 4753.7,11628C4835.37,11570.5 4896.2,11616.8 4857,11670C4812.38,11730.6 4731,11887.4 4618,11933C4563.13,11955.1 4721.07,12029.9 4718.9,12079C4717.66,12107.1 4632.28,12098.4 4606,12101.9C4440.87,12123.5 4314.44,12071.9 4382,11897Z" style="fill:rgb(235,115,21);stroke:rgb(235,115,21);stroke-width:12.5px;"/>
                            <path d="M4564,11947C4600.83,11956.4 4604.48,11926.7 4616.32,11940C4649.72,11977.6 4705.44,12032.2 4696,12038C4663.13,12058.1 4498.54,11930.4 4564,11947Z" style="fill:rgb(227,82,5);stroke:rgb(227,82,5);stroke-width:12.5px;"/>
                            <g transform="matrix(0.984587,0.174894,-0.174894,0.984587,2116,-624.014)">
                                <ellipse cx="4598.45" cy="11693.5" rx="24.455" ry="7.5" style="fill:rgb(98,21,5);"/>
                            </g>
                        </g>
                    </g>
                    <g id="mist-day" serif:id="mist day" transform="matrix(1,0,0,1,-2591.5,25981.7)">
                        <g id="mist" transform="matrix(1.41292,0,0,1.41292,4779.27,616.841)">
                            <path d="M681,3769C792.068,3767.86 1496.06,3785.26 1563,3769C1682.66,3739.93 1720.6,3422.02 1459,3454C1441.37,3456.16 1491.66,3337.47 1430.84,3289.53C1364.72,3237.43 1271.27,3259.68 1223,3298C1214.3,3304.91 1226.09,3047.36 963.045,3080.24C744.434,3107.57 791.051,3319.37 770,3360C768.738,3362.44 558.14,3334.91 539.411,3551.23C530.515,3653.97 595.606,3769.87 681,3769Z" style="fill:rgb(249,255,255);fill-opacity:0.76;"/>
                        </g>
                        <g transform="matrix(1,0,0,1,-43.5,-106)">
                            <g transform="matrix(1,0,0,0.510643,60,2682.13)">
                                <path d="M6162,5354.22C6162,5296.7 6138.15,5250 6108.78,5250L5345.22,5250C5315.85,5250 5292,5296.7 5292,5354.22C5292,5411.74 5315.85,5458.44 5345.22,5458.44L6108.78,5458.44C6138.15,5458.44 6162,5411.74 6162,5354.22Z" style="fill:rgb(243,240,240);fill-opacity:0.76;"/>
                            </g>
                            <g transform="matrix(1,0,0,0.510643,124,3100.13)">
                                <path d="M6162,5354.22C6162,5296.7 6138.15,5250 6108.78,5250L5345.22,5250C5315.85,5250 5292,5296.7 5292,5354.22C5292,5411.74 5315.85,5458.44 5345.22,5458.44L6108.78,5458.44C6138.15,5458.44 6162,5411.74 6162,5354.22Z" style="fill:rgb(243,240,240);fill-opacity:0.76;"/>
                            </g>
                            <g transform="matrix(1,0,0,0.510643,766,3405.13)">
                                <path d="M6162,5354.22C6162,5296.7 6138.15,5250 6108.78,5250L5345.22,5250C5315.85,5250 5292,5296.7 5292,5354.22C5292,5411.74 5315.85,5458.44 5345.22,5458.44L6108.78,5458.44C6138.15,5458.44 6162,5411.74 6162,5354.22Z" style="fill:rgb(243,240,240);fill-opacity:0.76;"/>
                            </g>
                            <g transform="matrix(0.716092,0,0,0.365667,1922.44,3613.57)">
                                <path d="M6162,5354.22C6162,5296.7 6138.15,5250 6108.78,5250L5345.22,5250C5315.85,5250 5292,5296.7 5292,5354.22C5292,5411.74 5315.85,5458.44 5345.22,5458.44L6108.78,5458.44C6138.15,5458.44 6162,5411.74 6162,5354.22Z" style="fill:rgb(243,240,240);fill-opacity:0.76;"/>
                            </g>
                            <g transform="matrix(0.716092,0,0,0.365667,1645.44,3734.57)">
                                <path d="M6162,5354.22C6162,5296.7 6138.15,5250 6108.78,5250L5345.22,5250C5315.85,5250 5292,5296.7 5292,5354.22C5292,5411.74 5315.85,5458.44 5345.22,5458.44L6108.78,5458.44C6138.15,5458.44 6162,5411.74 6162,5354.22Z" style="fill:rgb(243,240,240);fill-opacity:0.76;"/>
                            </g>
                            <g transform="matrix(0.716092,0,0,0.365667,2980.44,3734.57)">
                                <path d="M6162,5354.22C6162,5296.7 6138.15,5250 6108.78,5250L5345.22,5250C5315.85,5250 5292,5296.7 5292,5354.22C5292,5411.74 5315.85,5458.44 5345.22,5458.44L6108.78,5458.44C6138.15,5458.44 6162,5411.74 6162,5354.22Z" style="fill:rgb(243,240,240);fill-opacity:0.76;"/>
                            </g>
                            <g transform="matrix(0.716092,0,0,0.365667,2782.44,3994.14)">
                                <path d="M6162,5354.22C6162,5296.7 6138.15,5250 6108.78,5250L5345.22,5250C5315.85,5250 5292,5296.7 5292,5354.22C5292,5411.74 5315.85,5458.44 5345.22,5458.44L6108.78,5458.44C6138.15,5458.44 6162,5411.74 6162,5354.22Z" style="fill:rgb(243,240,240);fill-opacity:0.76;"/>
                            </g>
                            <g transform="matrix(0.716092,0,0,0.365667,1873.44,4032.25)">
                                <path d="M6162,5354.22C6162,5296.7 6138.15,5250 6108.78,5250L5345.22,5250C5315.85,5250 5292,5296.7 5292,5354.22C5292,5411.74 5315.85,5458.44 5345.22,5458.44L6108.78,5458.44C6138.15,5458.44 6162,5411.74 6162,5354.22Z" style="fill:rgb(243,240,240);fill-opacity:0.76;"/>
                            </g>
                            <g transform="matrix(0.493103,0,0,0.2518,3608,4339.38)">
                                <path d="M6162,5354.22C6162,5296.7 6138.15,5250 6108.78,5250L5345.22,5250C5315.85,5250 5292,5296.7 5292,5354.22C5292,5411.74 5315.85,5458.44 5345.22,5458.44L6108.78,5458.44C6138.15,5458.44 6162,5411.74 6162,5354.22Z" style="fill:rgb(243,240,240);fill-opacity:0.76;"/>
                            </g>
                            <g transform="matrix(0.493103,0,0,0.2518,3889.5,4216.38)">
                                <path d="M6162,5354.22C6162,5296.7 6138.15,5250 6108.78,5250L5345.22,5250C5315.85,5250 5292,5296.7 5292,5354.22C5292,5411.74 5315.85,5458.44 5345.22,5458.44L6108.78,5458.44C6138.15,5458.44 6162,5411.74 6162,5354.22Z" style="fill:rgb(243,240,240);fill-opacity:0.76;"/>
                            </g>
                            <g transform="matrix(0.493103,0,0,0.2518,3889.5,4486.38)">
                                <path d="M6162,5354.22C6162,5296.7 6138.15,5250 6108.78,5250L5345.22,5250C5315.85,5250 5292,5296.7 5292,5354.22C5292,5411.74 5315.85,5458.44 5345.22,5458.44L6108.78,5458.44C6138.15,5458.44 6162,5411.74 6162,5354.22Z" style="fill:rgb(243,240,240);fill-opacity:0.76;"/>
                            </g>
                        </g>
                    </g>
                </g>
            </g>
        </g>
    </g>
</svg>
